<svg width="20" height="14" viewBox="0 0 20 14" fill="none" xmlns="http://www.w3.org/2000/svg">
<path d="M16.2582 7.89506H16.1037L16.0346 8.03325L13.781 12.5404C13.5264 12.9594 13.1192 13.2178 12.6775 13.2178C12.2228 13.2178 11.797 12.9484 11.6138 12.5557L11.6139 12.5556L11.6103 12.5485L7.5456 4.5161L7.3212 4.07265L7.09893 4.51718L5.74561 7.22376C5.52568 7.63377 5.1224 7.89511 4.67745 7.89511H1.45158C0.783186 7.89511 0.25 7.36193 0.25 6.69353C0.25 6.02514 0.783186 5.49195 1.45158 5.49195H3.7742H3.92871L3.99781 5.35375L6.25586 0.837666L6.25587 0.837643C6.44485 0.459581 6.86682 0.25 7.32253 0.25C7.77823 0.25 8.2003 0.459584 8.38941 0.837692L8.38958 0.838024L12.4219 8.87042L12.6445 9.3138L12.8684 8.8711L14.2541 6.13152C14.474 5.72124 14.8774 5.45969 15.3226 5.45969H18.5484C19.2168 5.45969 19.75 5.99288 19.75 6.66127V6.66134C19.7502 7.34435 19.235 7.89506 18.5808 7.89506H16.2582Z" fill="#4A515D" stroke="white" stroke-width="0.5"/>
</svg>
