<svg width="76" height="98" viewBox="0 0 76 98" fill="none" xmlns="http://www.w3.org/2000/svg">
<path d="M27.1666 71.25C27.1666 72.6866 27.7373 74.0643 28.7531 75.0802C29.7689 76.096 31.1467 76.6667 32.5832 76.6667L43.4166 76.6667C44.8532 76.6667 46.2309 76.096 47.2467 75.0801C48.2626 74.0643 48.8332 72.6866 48.8332 71.25C48.8332 69.8134 48.2626 68.4357 47.2467 67.4198C46.2309 66.404 44.8532 65.8333 43.4166 65.8333L32.5832 65.8333C31.1467 65.8333 29.7689 66.404 28.7531 67.4198C27.7373 68.4357 27.1666 69.8134 27.1666 71.25ZM32.5832 6.24999C32.5832 4.8134 32.0126 3.43565 30.9967 2.41983C29.9809 1.404 28.6032 0.833325 27.1666 0.833325L5.49991 0.833326C4.06332 0.833326 2.68558 1.404 1.66975 2.41983C0.653931 3.43565 0.0832474 4.8134 0.0832475 6.24999L0.0832517 103.75C0.0832518 105.187 0.653936 106.564 1.66976 107.58C2.68558 108.596 4.06333 109.167 5.49992 109.167L27.1666 109.167C28.6032 109.167 29.9809 108.596 30.9967 107.58C32.0126 106.564 32.5833 105.187 32.5833 103.75C32.5833 102.313 33.1539 100.936 34.1698 99.9198C35.1856 98.904 36.5633 98.3333 37.9999 98.3333C39.4365 98.3333 40.8143 98.904 41.8301 99.9198C42.8459 100.936 43.4166 102.313 43.4166 103.75C43.4166 105.187 43.9873 106.564 45.0031 107.58C46.0189 108.596 47.3967 109.167 48.8333 109.167L70.4999 109.167C71.9365 109.167 73.3143 108.596 74.3301 107.58C75.3459 106.564 75.9166 105.187 75.9166 103.75L75.9166 6.24999C75.9166 4.8134 75.3459 3.43565 74.3301 2.41982C73.3143 1.404 71.9365 0.833323 70.4999 0.833323L48.8332 0.833324C47.3967 0.833324 46.0189 1.404 45.0031 2.41983C43.9873 3.43565 43.4166 4.8134 43.4166 6.24999C43.4166 7.68658 42.8459 9.06433 41.8301 10.0802C40.8143 11.096 39.4365 11.6667 37.9999 11.6667C36.5633 11.6667 35.1856 11.096 34.1698 10.0802C33.1539 9.06434 32.5832 7.68658 32.5832 6.24999ZM22.7249 11.6667C23.8635 14.8037 25.9404 17.5142 28.6733 19.4296C31.4062 21.345 34.6626 22.3726 37.9999 22.3726C41.3372 22.3726 44.5936 21.345 47.3265 19.4296C50.0594 17.5142 52.1363 14.8037 53.2749 11.6667L65.0832 11.6667L65.0832 65.8333C63.6467 65.8333 62.2689 66.404 61.2531 67.4198C60.2373 68.4356 59.6666 69.8134 59.6666 71.25C59.6666 72.6866 60.2373 74.0643 61.2531 75.0801C62.2689 76.096 63.6467 76.6667 65.0832 76.6667L65.0832 98.3333L53.2749 98.3333C52.1363 95.1962 50.0594 92.4858 47.3265 90.5704C44.5936 88.6549 41.3372 87.6274 37.9999 87.6274C34.6626 87.6274 31.4062 88.6549 28.6733 90.5704C25.9404 92.4858 23.8635 95.1962 22.7249 98.3333L10.9166 98.3333L10.9166 76.6667C12.3532 76.6667 13.7309 76.096 14.7467 75.0802C15.7626 74.0643 16.3332 72.6866 16.3332 71.25C16.3332 69.8134 15.7626 68.4357 14.7467 67.4198C13.7309 66.404 12.3532 65.8333 10.9166 65.8333L10.9166 11.6667L22.7249 11.6667Z" fill="#685BE7"/>
</svg>
