<svg width="110" height="98" viewBox="0 0 110 98" fill="none" xmlns="http://www.w3.org/2000/svg">
<path d="M69.7335 37.6125L46.496 60.9042L37.5585 51.9667C37.0729 51.3997 36.4754 50.9391 35.8034 50.614C35.1313 50.2889 34.3994 50.1062 33.6534 50.0774C32.9074 50.0485 32.1635 50.1742 31.4684 50.4466C30.7733 50.7189 30.142 51.1319 29.6142 51.6598C29.0863 52.1877 28.6732 52.819 28.4009 53.5141C28.1286 54.2092 28.0029 54.9531 28.0317 55.6991C28.0605 56.445 28.2432 57.177 28.5683 57.849C28.8935 58.521 29.354 59.1186 29.921 59.6042L42.6502 72.3875C43.1563 72.8895 43.7566 73.2867 44.4165 73.5563C45.0765 73.8258 45.7831 73.9625 46.496 73.9584C47.917 73.9524 49.2788 73.3882 50.2877 72.3875L77.371 45.3042C77.8787 44.8006 78.2817 44.2015 78.5567 43.5415C78.8317 42.8814 78.9733 42.1734 78.9733 41.4583C78.9733 40.7433 78.8317 40.0353 78.5567 39.3752C78.2817 38.7151 77.8787 38.1161 77.371 37.6125C76.3561 36.6037 74.9833 36.0374 73.5523 36.0374C72.1213 36.0374 70.7484 36.6037 69.7335 37.6125ZM55.0002 0.833344C44.287 0.833344 33.8145 4.01016 24.9068 9.96207C15.9991 15.914 9.05646 24.3737 4.95671 34.2713C0.856966 44.169 -0.215715 55.0601 1.87432 65.5674C3.96435 76.0747 9.12322 85.7263 16.6986 93.3016C24.2739 100.877 33.9255 106.036 44.4328 108.126C54.9401 110.216 65.8312 109.143 75.7289 105.043C85.6265 100.944 94.0862 94.0011 100.038 85.0934C105.99 76.1857 109.167 65.7132 109.167 55C109.167 47.8867 107.766 40.8431 105.044 34.2713C102.322 27.6995 98.3316 21.7282 93.3018 16.6984C88.2719 11.6686 82.3007 7.67867 75.7289 4.95654C69.1571 2.23441 62.1134 0.833344 55.0002 0.833344ZM55.0002 98.3334C46.4297 98.3334 38.0516 95.7919 30.9255 91.0304C23.7993 86.2688 18.2452 79.5011 14.9654 71.583C11.6856 63.6648 10.8275 54.9519 12.4995 46.5461C14.1715 38.1403 18.2986 30.419 24.3589 24.3587C30.4192 18.2984 38.1404 14.1713 46.5463 12.4993C54.9521 10.8273 63.665 11.6854 71.5831 14.9652C79.5013 18.245 86.269 23.7992 91.0305 30.9253C95.792 38.0514 98.3335 46.4295 98.3335 55C98.3335 66.4927 93.7681 77.5147 85.6415 85.6413C77.5149 93.7679 66.4929 98.3334 55.0002 98.3334Z" fill="#685BE7"/>
</svg>
