<svg width="130" height="108" viewBox="0 0 130 108" fill="none" xmlns="http://www.w3.org/2000/svg">
<path d="M46.7189 46.0417H22.3439C21.6325 46.0421 20.9279 45.9023 20.2706 45.6302C19.6132 45.3581 19.0159 44.9591 18.5128 44.4561C18.0098 43.953 17.6108 43.3557 17.3387 42.6984C17.0667 42.041 16.9268 41.3365 16.9272 40.625V16.25C16.9272 14.8134 17.4979 13.4357 18.5138 12.4198C19.5296 11.404 20.9073 10.8333 22.3439 10.8333C23.7805 10.8333 25.1583 11.404 26.1741 12.4198C27.1899 13.4357 27.7606 14.8134 27.7606 16.25V35.2083H46.7189C48.1555 35.2083 49.5333 35.779 50.5491 36.7949C51.5649 37.8107 52.1356 39.1884 52.1356 40.625C52.1356 42.0616 51.5649 43.4394 50.5491 44.4552C49.5333 45.471 48.1555 46.0417 46.7189 46.0417Z" fill="#685BE7"/>
<path d="M113.75 70.4167C113.038 70.4171 112.334 70.2772 111.676 70.0052C111.019 69.7331 110.422 69.3341 109.919 68.8311C109.416 68.328 109.017 67.7307 108.745 67.0734C108.473 66.416 108.333 65.7114 108.333 65C108.339 55.4626 105.196 46.19 99.3931 38.6215C93.5897 31.053 85.4501 25.6119 76.2378 23.1429C67.0256 20.6739 57.2559 21.315 48.4453 24.9668C39.6347 28.6186 32.2761 35.0767 27.5116 43.3388C27.1552 43.9542 26.6811 44.4935 26.1163 44.9257C25.5515 45.3579 24.9071 45.6747 24.2199 45.8579C22.8321 46.2279 21.3541 46.0314 20.1111 45.3117C18.8681 44.592 17.962 43.4079 17.592 42.0201C17.222 40.6322 17.4184 39.1542 18.1382 37.9113C24.0967 27.5862 33.2965 19.5166 44.31 14.9545C55.3235 10.3924 67.5349 9.59303 79.0491 12.6804C90.5634 15.7677 100.737 22.5691 107.99 32.0292C115.244 41.4893 119.173 53.079 119.166 65C119.167 65.7114 119.027 66.416 118.755 67.0734C118.483 67.7307 118.084 68.328 117.581 68.8311C117.078 69.3341 116.48 69.7331 115.823 70.0052C115.166 70.2772 114.461 70.4171 113.75 70.4167V70.4167ZM107.656 119.167C106.945 119.167 106.24 119.027 105.583 118.755C104.925 118.483 104.328 118.084 103.825 117.581C103.322 117.078 102.923 116.481 102.651 115.823C102.379 115.166 102.239 114.461 102.239 113.75V94.7917H83.281C81.8444 94.7917 80.4667 94.221 79.4509 93.2052C78.435 92.1893 77.8643 90.8116 77.8643 89.375C77.8643 87.9384 78.435 86.5607 79.4509 85.5448C80.4667 84.529 81.8444 83.9583 83.281 83.9583H107.656C108.367 83.9579 109.072 84.0978 109.729 84.3698C110.387 84.6419 110.984 85.0409 111.487 85.5439C111.99 86.047 112.389 86.6443 112.661 87.3017C112.933 87.959 113.073 88.6636 113.073 89.375V113.75C113.073 114.461 112.933 115.166 112.661 115.823C112.389 116.481 111.99 117.078 111.487 117.581C110.984 118.084 110.387 118.483 109.729 118.755C109.072 119.027 108.367 119.167 107.656 119.167V119.167Z" fill="#685BE7"/>
<path d="M65.0002 119.167C50.6394 119.15 36.8717 113.438 26.7172 103.283C16.5626 93.1284 10.8504 79.3607 10.8335 65C10.8335 63.5634 11.4042 62.1857 12.42 61.1698C13.4358 60.154 14.8136 59.5833 16.2502 59.5833C17.6868 59.5833 19.0645 60.154 20.0803 61.1698C21.0961 62.1857 21.6668 63.5634 21.6668 65C21.6608 74.5374 24.8035 83.81 30.6069 91.3785C36.4103 98.9471 44.5498 104.388 53.7621 106.857C62.9744 109.326 72.744 108.685 81.5546 105.033C90.3652 101.381 97.7239 94.9233 102.488 86.6613C103.208 85.4183 104.392 84.5121 105.78 84.1421C107.168 83.7721 108.646 83.9686 109.889 84.6883C111.132 85.408 112.038 86.5921 112.408 87.9799C112.778 89.3678 112.581 90.8458 111.862 92.0888C107.098 100.303 100.264 107.126 92.0418 111.877C83.8197 116.628 74.4962 119.141 65.0002 119.167V119.167Z" fill="#685BE7"/>
</svg>
