<svg width="110" height="98" viewBox="0 0 110 98" fill="none" xmlns="http://www.w3.org/2000/svg">
<path d="M54.9999 0.833344C44.2868 0.833344 33.8142 4.01016 24.9066 9.96207C15.9989 15.914 9.05622 24.3737 4.95647 34.2713C0.856722 44.169 -0.215959 55.0601 1.87407 65.5674C3.96411 76.0747 9.12298 85.7263 16.6983 93.3016C24.2737 100.877 33.9253 106.036 44.4326 108.126C54.9399 110.216 65.831 109.143 75.7286 105.043C85.6263 100.944 94.086 94.0011 100.038 85.0934C105.99 76.1857 109.167 65.7132 109.167 55C109.167 47.8867 107.766 40.8431 105.043 34.2713C102.321 27.6995 98.3314 21.7282 93.3016 16.6984C88.2717 11.6686 82.3004 7.67867 75.7286 4.95654C69.1568 2.23441 62.1132 0.833344 54.9999 0.833344V0.833344ZM54.9999 98.3333C46.4294 98.3333 38.0514 95.7919 30.9252 91.0304C23.7991 86.2688 18.245 79.5011 14.9652 71.583C11.6854 63.6648 10.8272 54.9519 12.4992 46.5461C14.1713 38.1403 18.2984 30.419 24.3586 24.3587C30.4189 18.2984 38.1402 14.1713 46.546 12.4993C54.9519 10.8273 63.6648 11.6854 71.5829 14.9652C79.501 18.245 86.2688 23.7992 91.0303 30.9253C95.7918 38.0514 98.3333 46.4295 98.3333 55C98.3333 66.4927 93.7678 77.5147 85.6412 85.6413C77.5147 93.7679 66.4927 98.3333 54.9999 98.3333V98.3333ZM66.375 42.1625L60.4166 45.6292V27.9167C60.4166 26.4801 59.8459 25.1023 58.8301 24.0865C57.8143 23.0707 56.4365 22.5 54.9999 22.5C53.5634 22.5 52.1856 23.0707 51.1698 24.0865C50.154 25.1023 49.5833 26.4801 49.5833 27.9167V55C49.5833 55 49.5833 55 49.5833 55.325C49.5578 55.6857 49.5578 56.0477 49.5833 56.4083C49.6672 56.741 49.7758 57.0669 49.9083 57.3833C49.9083 57.3833 49.9083 57.3833 49.9083 57.7083C50.167 58.0926 50.4569 58.4549 50.7749 58.7917V58.7917C51.2125 59.2256 51.7268 59.5745 52.2916 59.8208H52.7249C53.4305 60.1837 54.2071 60.3871 54.9999 60.4167V60.4167C55.6312 60.3986 56.2545 60.2703 56.8416 60.0375H57.3291H57.7083L71.7916 51.9125C73.0415 51.1942 73.9547 50.0088 74.3306 48.6172C74.7065 47.2255 74.5141 45.7415 73.7958 44.4917C73.0775 43.2418 71.8921 42.3285 70.5004 41.9527C69.1088 41.5768 67.6248 41.7692 66.375 42.4875V42.1625Z" fill="#685BE7"/>
</svg>
