<svg viewBox="0 0 10 18" fill="none" xmlns="http://www.w3.org/2000/svg">
<path d="M1.66666 4.00008C2.58714 4.00008 3.33333 3.25389 3.33333 2.33341C3.33333 1.41294 2.58714 0.666748 1.66666 0.666748C0.74619 0.666748 0 1.41294 0 2.33341C0 3.25389 0.74619 4.00008 1.66666 4.00008Z" fill="#4A515D"/>
<path d="M1.66666 10.6666C2.58714 10.6666 3.33333 9.92041 3.33333 8.99991C3.33333 8.07945 2.58714 7.33325 1.66666 7.33325C0.74619 7.33325 0 8.07945 0 8.99991C0 9.92041 0.74619 10.6666 1.66666 10.6666Z" fill="#4A515D"/>
<path d="M1.66666 17.3333C2.58714 17.3333 3.33333 16.5871 3.33333 15.6667C3.33333 14.7462 2.58714 14 1.66666 14C0.74619 14 0 14.7462 0 15.6667C0 16.5871 0.74619 17.3333 1.66666 17.3333Z" fill="#4A515D"/>
<path d="M8.33272 4.00008C9.25322 4.00008 9.99932 3.25389 9.99932 2.33341C9.99932 1.41294 9.25322 0.666748 8.33272 0.666748C7.41222 0.666748 6.66602 1.41294 6.66602 2.33341C6.66602 3.25389 7.41222 4.00008 8.33272 4.00008Z" fill="#4A515D"/>
<path d="M8.33272 10.6666C9.25322 10.6666 9.99932 9.92041 9.99932 8.99991C9.99932 8.07945 9.25322 7.33325 8.33272 7.33325C7.41222 7.33325 6.66602 8.07945 6.66602 8.99991C6.66602 9.92041 7.41222 10.6666 8.33272 10.6666Z" fill="#4A515D"/>
<path d="M8.33272 17.3333C9.25322 17.3333 9.99932 16.5871 9.99932 15.6667C9.99932 14.7462 9.25322 14 8.33272 14C7.41222 14 6.66602 14.7462 6.66602 15.6667C6.66602 16.5871 7.41222 17.3333 8.33272 17.3333Z" fill="#4A515D"/>
</svg>
