<svg xmlns="http://www.w3.org/2000/svg" viewBox="0 0 16 16">
  <g id="Group_269" data-name="Group 269" transform="translate(-2250 -1195)">
    <rect id="Rectangle_12" data-name="Rectangle 12" width="16" height="16" transform="translate(2250 1195)" fill="#f6f8fa"/>
    <path id="Path_19" data-name="Path 19" d="M42.42,4.856a.576.576,0,1,0,.2,1.134l.332-.058V7.127a.576.576,0,0,0,1.152,0V5.73l1.027-.181V6.767a.576.576,0,0,0,1.152,0V5.347l.7-.124a.576.576,0,1,0-.2-1.134l-.505.089v-1.2l.628-.11a.576.576,0,0,0-.2-1.134l-.428.075V.576a.576.576,0,0,0-1.152,0V2.014L44.1,2.195V.936a.576.576,0,1,0-1.152,0V2.4l-.608.107a.576.576,0,0,0,.1,1.143.589.589,0,0,0,.1-.009l.409-.072v1.2ZM44.1,3.365l1.027-.181v1.2L44.1,4.56Z" transform="translate(2213.335 1199.149)" fill="#6a6a75"/>
  </g>
</svg>
