<svg xmlns="http://www.w3.org/2000/svg" viewBox="0 0 16 16">
  <g id="Group_285" data-name="Group 285" transform="translate(-2250 -1369)">
    <rect id="Rectangle_12" data-name="Rectangle 12" width="16" height="16" transform="translate(2250 1369)" fill="#f6f8fa"/>
    <path id="Path_49" data-name="Path 49" d="M2.315,29.809v1.464h6.8V29.809Zm6.378,1.039H2.74v-.614H8.693ZM2.315,32.974h6.8V31.51h-6.8Zm.425-1.039H8.693v.614H2.74Zm-.425,2.728h6.8V33.2h-6.8Zm.425-1.039H8.693v.614H2.74ZM6.8,29.313H8.645V26.762H0v2.551H6.8Zm0-2.126H8.22v1.7H6.8Zm-6.378,1.7v-1.7H6.378v1.7Zm6.649-1.056h.931l-.466.592Z" transform="translate(2253.441 1346.287)" fill="#6a6a75"/>
  </g>
</svg>
