<svg xmlns="http://www.w3.org/2000/svg" viewBox="0 0 16 16">
  <g id="Group_249" data-name="Group 249" transform="translate(-2250 -1107)">
    <rect id="Rectangle_12" data-name="Rectangle 12" width="16" height="16" transform="translate(2250 1107)" fill="#f6f8fa"/>
    <g id="Group_248" data-name="Group 248" transform="translate(2253.719 1111.149)">
      <g id="Group_248-2" data-name="Group 248" transform="translate(0.662)">
        <path id="Path_15" data-name="Path 15" d="M7.686,7.7h-1.1a.212.212,0,0,1-.2-.136L5.594,5.5H2.846L2.1,7.563a.212.212,0,0,1-.2.14H.875a.212.212,0,0,1-.2-.289L3.471.136A.212.212,0,0,1,3.67,0H4.708a.213.213,0,0,1,.2.132L7.883,7.409a.213.213,0,0,1-.2.294Zm-4.4-3.414H5.135L4.484,2.561q-.164-.433-.289-.8-.1.34-.221.676Z" transform="translate(-0.662)" fill="#6a6a75"/>
      </g>
    </g>
  </g>
</svg>
