<svg xmlns="http://www.w3.org/2000/svg" viewBox="0 0 16 16">
  <g id="Group_381" data-name="Group 381" transform="translate(-2250 -1456)">
    <rect id="Rectangle_12" data-name="Rectangle 12" width="16" height="16" transform="translate(2250 1456)" fill="#f6f8fa"/>
    <g id="Layer_5" transform="translate(2211.046 1423.007)">
      <g id="Group_380" data-name="Group 380" transform="translate(43.686 36.891)">
        <path id="Path_63" data-name="Path 63" d="M48.637,45.1a.222.222,0,0,1-.222-.222v-6.82h-1.03v6.82a.222.222,0,0,1-.222.222h-.576a.222.222,0,0,1-.222-.222V41.959l-.1-.009a2.875,2.875,0,0,1-1.992-.824,2.571,2.571,0,0,1-.588-1.561,2.424,2.424,0,0,1,.706-1.975c.586-.586,1.35-.686,2.949-.7H50a.209.209,0,0,1,.222.194,4.269,4.269,0,0,1-.054.6.292.292,0,0,1-.279.224h-.1c-.245,0-.354.109-.354.354v6.609a.222.222,0,0,1-.222.222h-.576ZM46.257,37.97a2.741,2.741,0,0,0-.508.042,1.063,1.063,0,0,0-.636.3,1.45,1.45,0,0,0-.408,1.254,1.658,1.658,0,0,0,.1.462,1.146,1.146,0,0,0,.188.372,1.231,1.231,0,0,0,.5.349h0a2.524,2.524,0,0,0,.759.114l.113,0V38.1s0,0,0-.007l.008-.124Z" transform="translate(-43.686 -36.891)" fill="#6a6a75"/>
      </g>
    </g>
  </g>
</svg>
