<svg width="8" height="14" viewBox="0 0 8 14" fill="none" xmlns="http://www.w3.org/2000/svg">
<path d="M0.459286 6.28998L6.11929 0.639976C6.21225 0.546247 6.32285 0.471853 6.44471 0.421084C6.56657 0.370316 6.69727 0.344177 6.82929 0.344177C6.9613 0.344177 7.092 0.370316 7.21386 0.421084C7.33572 0.471853 7.44632 0.546247 7.53929 0.639976C7.72554 0.827338 7.83008 1.08079 7.83008 1.34498C7.83008 1.60916 7.72554 1.86261 7.53929 2.04998L2.58929 7.04998L7.53929 12C7.72554 12.1873 7.83008 12.4408 7.83008 12.705C7.83008 12.9692 7.72554 13.2226 7.53929 13.41C7.44667 13.5045 7.33623 13.5796 7.21435 13.6311C7.09248 13.6826 6.96159 13.7094 6.82929 13.71C6.69698 13.7094 6.5661 13.6826 6.44422 13.6311C6.32235 13.5796 6.2119 13.5045 6.11929 13.41L0.459286 7.75998C0.357781 7.66633 0.276772 7.55268 0.221365 7.42618C0.165957 7.29968 0.137353 7.16308 0.137353 7.02498C0.137353 6.88687 0.165957 6.75027 0.221365 6.62377C0.276772 6.49727 0.357781 6.38362 0.459286 6.28998Z" fill="#4A515D"/>
</svg>
