<svg width="13" height="16" viewBox="0 0 13 16" fill="none" xmlns="http://www.w3.org/2000/svg">
  <path d="M3.14014 2.36022C2.95447 2.01581 2.878 1.65593 2.91002 1.28237C2.9411 0.916696 3.05541 0.645199 3.25485 0.468614C3.4543 0.29203 3.66219 0.215727 3.87995 0.23613C4.04831 0.253905 4.18707 0.32419 4.2929 0.449828C4.39873 0.575466 4.4464 0.709525 4.43401 0.851269C4.42558 0.93882 4.39009 1.02827 4.32634 1.11708C4.26259 1.2059 4.18552 1.27304 4.0906 1.31882C3.99759 1.36534 3.8986 1.3827 3.79744 1.3724C3.7718 1.37071 3.72595 1.35914 3.66372 1.33915C3.60148 1.31916 3.57156 1.31169 3.58248 1.3118C3.48512 1.30296 3.42379 1.42987 3.40231 1.694C3.38126 1.9294 3.42767 2.18268 3.53892 2.4549C3.65018 2.72712 3.82286 2.95504 4.05889 3.13939L4.05023 3.23304C3.62846 2.99735 3.3251 2.70641 3.14014 2.36022Z" fill="white"/>
  <path d="M2.39247 2.83204C2.05534 2.64833 1.69995 2.56144 1.32631 2.57138C0.962218 2.58187 0.687025 2.67089 0.503187 2.84169C0.319348 3.01249 0.235847 3.19528 0.249749 3.39222C0.262138 3.5448 0.326132 3.672 0.448582 3.77382C0.568341 3.8751 0.701015 3.92392 0.843913 3.91972C0.931757 3.91818 1.02202 3.88958 1.11177 3.8361C1.20152 3.78262 1.27192 3.7156 1.32176 3.63341C1.37013 3.5523 1.39181 3.46305 1.38487 3.37215C1.38289 3.34834 1.37428 3.30668 1.35612 3.24931C1.33942 3.19087 1.33205 3.16597 1.33133 3.17409C1.32561 3.08481 1.45452 3.03786 1.71829 3.03053C1.95319 3.02425 2.20479 3.07641 2.47138 3.19081C2.73797 3.30521 2.96154 3.47151 3.13648 3.69132L3.22995 3.68816C3.01105 3.30113 2.73107 3.01467 2.39247 2.83204Z" fill="white"/>
  <path d="M4.16651 7.80377C2.77582 7.40899 1.89015 6.02168 2.16151 4.58205C2.44919 3.05401 3.93033 2.04528 5.46926 2.33046C6.62 2.54341 7.47802 3.4189 7.71797 4.48491C7.63129 4.46001 7.54461 4.43884 7.45416 4.42265C5.91523 4.13746 4.43284 5.14619 4.14515 6.67424C4.07354 7.0603 4.08359 7.44386 4.16651 7.80377Z" fill="white"/>
  <path d="M10.9024 10.0742C12.2931 10.4653 13.1825 11.8501 12.9162 13.2897C12.6335 14.819 11.1549 15.8315 9.61474 15.5513C8.464 15.342 7.60346 14.4691 7.35974 13.4043C7.44642 13.4279 7.53436 13.4491 7.62356 13.4653C9.16374 13.7468 10.6436 12.733 10.9263 11.2038C10.9966 10.8164 10.9841 10.4341 10.9024 10.0742Z" fill="white"/>
  <path d="M13 7.04936C13 8.40804 12.157 9.57244 10.961 10.0556C10.9422 10.0631 10.9234 10.0718 10.902 10.0768V6.95098C10.902 6.32208 10.3894 5.81273 9.75502 5.81273C9.12187 5.81273 8.60805 6.32208 8.60805 6.95098V7.89246C8.60554 7.89371 8.60554 7.89495 8.60429 7.8962H6.46235V7.12657C6.45984 7.09917 6.45984 7.07427 6.45984 7.04936C6.45984 5.29217 7.86686 3.86251 9.62186 3.80523C9.65829 3.80273 9.69347 3.80273 9.7299 3.80273H9.74497C9.79774 3.80273 9.84673 3.80523 9.8995 3.80647C11.6269 3.89364 13 5.3121 13 7.04936Z" fill="white"/>
  <path d="M2.0686 10.8302C2.0686 9.4715 2.91156 8.3071 4.10752 7.82391C4.12637 7.81643 4.14521 7.80772 4.16657 7.80273V10.9286C4.16657 11.5575 4.67912 12.0668 5.31354 12.0668C5.9467 12.0668 6.46051 11.5575 6.46051 10.9286V9.98708C6.46302 9.98583 6.46302 9.98459 6.46428 9.98334H8.60621V10.753C8.60872 10.7804 8.60872 10.8053 8.60872 10.8302C8.60872 12.5874 7.20171 14.017 5.4467 14.0743C5.41027 14.0768 5.3751 14.0768 5.33866 14.0768H5.32359C5.27083 14.0768 5.22183 14.0743 5.16907 14.0731C3.4417 13.9859 2.0686 12.5674 2.0686 10.8302Z" fill="white"/>
</svg>
