<svg width="23" height="20" viewBox="0 0 23 20" fill="none" xmlns="http://www.w3.org/2000/svg">
<mask id="path-1-inside-1_6088_59595" fill="white">
<path d="M20.9785 5.71136H20.3046V1.78629C20.3046 1.41145 20.0029 1.10756 19.6308 1.10756C19.2587 1.10756 18.957 1.41145 18.957 1.78629V4.0819C18.6074 3.52955 18.1933 3.01335 17.7181 2.54299C16.0616 0.903122 13.8533 0 11.5 0C9.14497 0 6.93594 0.903213 5.27998 2.5433C4.80561 3.01308 4.39215 3.52864 4.04297 4.08036V1.78629C4.04297 1.41145 3.74127 1.10756 3.36914 1.10756C2.99701 1.10756 2.69531 1.41145 2.69531 1.78629V5.71136H2.02148C0.906838 5.71136 0 6.6248 0 7.74756V10.5077C0 11.6305 0.906838 12.5439 2.02148 12.5439H3.42363C4.21915 13.7633 5.58905 14.5701 7.14271 14.5701H15.8573C17.411 14.5701 18.7808 13.7633 19.5764 12.5439H20.9785C21.2148 12.5439 21.4414 12.5025 21.6523 12.4272V14.5474C21.6523 16.0559 20.3561 17.3303 18.8216 17.3303H16.9247C16.6596 16.5169 15.899 15.9276 15.0039 15.9276H13.5214C12.4068 15.9276 11.5 16.841 11.5 17.9638C11.5 19.0866 12.4068 20 13.5214 20H15.0039C15.8654 20 16.6024 19.4541 16.8928 18.6878H18.8216C21.0866 18.6878 23 16.7917 23 14.5474V7.74756C23 6.6248 22.0932 5.71136 20.9785 5.71136ZM15.0039 18.6425H13.5215C13.1499 18.6425 12.8477 18.3381 12.8477 17.9638C12.8477 17.5895 13.1499 17.2851 13.5215 17.2851H15.0039C15.3755 17.2851 15.6777 17.5895 15.6777 17.9638C15.6777 18.3381 15.3755 18.6425 15.0039 18.6425ZM2.02148 11.1865C1.64994 11.1865 1.34766 10.882 1.34766 10.5077V7.74756C1.34766 7.3733 1.64994 7.06882 2.02148 7.06882H2.69531V10.0904C2.69531 10.4684 2.74226 10.8356 2.83021 11.1865H2.02148ZM15.8573 13.2127H7.14271C5.96333 13.2127 4.93593 12.5457 4.41214 11.5666C4.17738 11.1238 4.04279 10.6248 4.04297 10.0904V8.77661C4.04391 4.6162 7.31908 1.35747 11.5 1.35747C15.6107 1.35747 18.9551 4.68462 18.957 8.77498L18.957 10.0904C18.957 11.812 17.5665 13.2127 15.8573 13.2127ZM20.9785 11.1865H20.1698C20.2577 10.8356 20.3047 10.4684 20.3047 10.0904L20.3046 7.06882H20.9785C21.3501 7.06882 21.6523 7.3733 21.6523 7.74756V10.5077C21.6523 10.882 21.3501 11.1865 20.9785 11.1865Z"/>
<path d="M8.88721 7.55652C8.51508 7.55652 8.21338 7.86041 8.21338 8.23526V8.73299C8.21338 9.10784 8.51508 9.41173 8.88721 9.41173C9.25934 9.41173 9.56104 9.10784 9.56104 8.73299V8.23526C9.56104 7.86037 9.25939 7.55652 8.88721 7.55652Z"/>
<path d="M14.1129 7.55652C13.7408 7.55652 13.4391 7.86041 13.4391 8.23526V8.73299C13.4391 9.10784 13.7408 9.41173 14.1129 9.41173C14.4851 9.41173 14.7868 9.10784 14.7868 8.73299V8.23526C14.7868 7.86037 14.4851 7.55652 14.1129 7.55652Z"/>
<path d="M14.2627 5.11316H8.73729C6.89194 5.11316 5.39061 6.62538 5.39061 8.4842C5.39061 10.343 6.8919 11.8552 8.73729 11.8552H14.2627C16.108 11.8552 17.6094 10.343 17.6094 8.4842C17.6094 6.62538 16.108 5.11316 14.2627 5.11316ZM14.2627 10.4977H8.73729C7.63504 10.4977 6.73826 9.59447 6.73826 8.48416C6.73826 7.37388 7.635 6.47058 8.73729 6.47058H14.2627C15.3649 6.47058 16.2617 7.37384 16.2617 8.48416C16.2617 9.59447 15.3649 10.4977 14.2627 10.4977Z"/>
</mask>
<path d="M20.9785 5.71136H20.3046V1.78629C20.3046 1.41145 20.0029 1.10756 19.6308 1.10756C19.2587 1.10756 18.957 1.41145 18.957 1.78629V4.0819C18.6074 3.52955 18.1933 3.01335 17.7181 2.54299C16.0616 0.903122 13.8533 0 11.5 0C9.14497 0 6.93594 0.903213 5.27998 2.5433C4.80561 3.01308 4.39215 3.52864 4.04297 4.08036V1.78629C4.04297 1.41145 3.74127 1.10756 3.36914 1.10756C2.99701 1.10756 2.69531 1.41145 2.69531 1.78629V5.71136H2.02148C0.906838 5.71136 0 6.6248 0 7.74756V10.5077C0 11.6305 0.906838 12.5439 2.02148 12.5439H3.42363C4.21915 13.7633 5.58905 14.5701 7.14271 14.5701H15.8573C17.411 14.5701 18.7808 13.7633 19.5764 12.5439H20.9785C21.2148 12.5439 21.4414 12.5025 21.6523 12.4272V14.5474C21.6523 16.0559 20.3561 17.3303 18.8216 17.3303H16.9247C16.6596 16.5169 15.899 15.9276 15.0039 15.9276H13.5214C12.4068 15.9276 11.5 16.841 11.5 17.9638C11.5 19.0866 12.4068 20 13.5214 20H15.0039C15.8654 20 16.6024 19.4541 16.8928 18.6878H18.8216C21.0866 18.6878 23 16.7917 23 14.5474V7.74756C23 6.6248 22.0932 5.71136 20.9785 5.71136ZM15.0039 18.6425H13.5215C13.1499 18.6425 12.8477 18.3381 12.8477 17.9638C12.8477 17.5895 13.1499 17.2851 13.5215 17.2851H15.0039C15.3755 17.2851 15.6777 17.5895 15.6777 17.9638C15.6777 18.3381 15.3755 18.6425 15.0039 18.6425ZM2.02148 11.1865C1.64994 11.1865 1.34766 10.882 1.34766 10.5077V7.74756C1.34766 7.3733 1.64994 7.06882 2.02148 7.06882H2.69531V10.0904C2.69531 10.4684 2.74226 10.8356 2.83021 11.1865H2.02148ZM15.8573 13.2127H7.14271C5.96333 13.2127 4.93593 12.5457 4.41214 11.5666C4.17738 11.1238 4.04279 10.6248 4.04297 10.0904V8.77661C4.04391 4.6162 7.31908 1.35747 11.5 1.35747C15.6107 1.35747 18.9551 4.68462 18.957 8.77498L18.957 10.0904C18.957 11.812 17.5665 13.2127 15.8573 13.2127ZM20.9785 11.1865H20.1698C20.2577 10.8356 20.3047 10.4684 20.3047 10.0904L20.3046 7.06882H20.9785C21.3501 7.06882 21.6523 7.3733 21.6523 7.74756V10.5077C21.6523 10.882 21.3501 11.1865 20.9785 11.1865Z" fill="white"/>
<path d="M8.88721 7.55652C8.51508 7.55652 8.21338 7.86041 8.21338 8.23526V8.73299C8.21338 9.10784 8.51508 9.41173 8.88721 9.41173C9.25934 9.41173 9.56104 9.10784 9.56104 8.73299V8.23526C9.56104 7.86037 9.25939 7.55652 8.88721 7.55652Z" fill="white"/>
<path d="M14.1129 7.55652C13.7408 7.55652 13.4391 7.86041 13.4391 8.23526V8.73299C13.4391 9.10784 13.7408 9.41173 14.1129 9.41173C14.4851 9.41173 14.7868 9.10784 14.7868 8.73299V8.23526C14.7868 7.86037 14.4851 7.55652 14.1129 7.55652Z" fill="white"/>
<path d="M14.2627 5.11316H8.73729C6.89194 5.11316 5.39061 6.62538 5.39061 8.4842C5.39061 10.343 6.8919 11.8552 8.73729 11.8552H14.2627C16.108 11.8552 17.6094 10.343 17.6094 8.4842C17.6094 6.62538 16.108 5.11316 14.2627 5.11316ZM14.2627 10.4977H8.73729C7.63504 10.4977 6.73826 9.59447 6.73826 8.48416C6.73826 7.37388 7.635 6.47058 8.73729 6.47058H14.2627C15.3649 6.47058 16.2617 7.37384 16.2617 8.48416C16.2617 9.59447 15.3649 10.4977 14.2627 10.4977Z" fill="white"/>
<path d="M20.3046 5.71136H14.3046V11.7114H20.3046V5.71136ZM18.957 4.0819L13.8873 7.29093L24.957 24.7793V4.0819H18.957ZM17.7181 2.54299L21.9393 -1.72103L21.9393 -1.72106L17.7181 2.54299ZM5.27998 2.5433L9.5019 6.80657L9.50215 6.80632L5.27998 2.5433ZM4.04297 4.08036H-1.95703V24.7802L9.1129 7.28907L4.04297 4.08036ZM2.69531 5.71136V11.7114H8.69531V5.71136H2.69531ZM3.42363 12.5439L8.44876 9.26551L6.67319 6.54394H3.42363V12.5439ZM19.5764 12.5439V6.54394H16.327L14.5514 9.26538L19.5764 12.5439ZM21.6523 12.4272H27.6523V3.91259L19.634 6.77687L21.6523 12.4272ZM16.9247 17.3303L11.2199 19.1894L12.5694 23.3303H16.9247V17.3303ZM16.8928 18.6878V12.6878H12.7503L11.2823 16.5614L16.8928 18.6878ZM2.69531 7.06882H8.69531V1.06882H2.69531V7.06882ZM2.83021 11.1865V17.1865H10.5198L8.65017 9.72766L2.83021 11.1865ZM4.41214 11.5666L-0.88893 14.3771L-0.883644 14.387L-0.878321 14.397L4.41214 11.5666ZM4.04297 10.0904L10.043 10.0924V10.0904H4.04297ZM4.04297 8.77661L-1.95703 8.77525V8.77661H4.04297ZM18.957 8.77498L24.957 8.77477L24.957 8.77221L18.957 8.77498ZM18.957 10.0904L24.957 10.0904L24.957 10.0902L18.957 10.0904ZM20.1698 11.1865L14.3498 9.72766L12.4802 17.1865H20.1698V11.1865ZM20.3047 10.0904L26.3047 10.0904L26.3047 10.0903L20.3047 10.0904ZM20.3046 7.06882V1.06882H14.3045L14.3046 7.06892L20.3046 7.06882ZM20.9785 -0.288642H20.3046V11.7114H20.9785V-0.288642ZM26.3046 5.71136V1.78629H14.3046V5.71136H26.3046ZM26.3046 1.78629C26.3046 -1.86116 23.3576 -4.89244 19.6308 -4.89244V7.10756C16.6483 7.10756 14.3046 4.68406 14.3046 1.78629H26.3046ZM19.6308 -4.89244C15.904 -4.89244 12.957 -1.86116 12.957 1.78629H24.957C24.957 4.68406 22.6133 7.10756 19.6308 7.10756V-4.89244ZM12.957 1.78629V4.0819H24.957V1.78629H12.957ZM24.0267 0.872876C23.435 -0.061892 22.7363 -0.932032 21.9393 -1.72103L13.497 6.80701C13.6502 6.95873 13.7797 7.12099 13.8873 7.29093L24.0267 0.872876ZM21.9393 -1.72106C19.1473 -4.48493 15.4171 -6 11.5 -6V6C12.2895 6 12.9759 6.29117 13.497 6.80703L21.9393 -1.72106ZM11.5 -6C7.58232 -6 3.85046 -4.4856 1.05781 -1.71971L9.50215 6.80632C10.0214 6.29203 10.7076 6 11.5 6V-6ZM1.05807 -1.71996C0.261939 -0.931556 -0.435949 -0.0621775 -1.02696 0.871654L9.1129 7.28907C9.22024 7.11946 9.34928 6.95771 9.5019 6.80657L1.05807 -1.71996ZM10.043 4.08036V1.78629H-1.95703V4.08036H10.043ZM10.043 1.78629C10.043 -1.86116 7.09593 -4.89244 3.36914 -4.89244V7.10756C0.386614 7.10756 -1.95703 4.68406 -1.95703 1.78629H10.043ZM3.36914 -4.89244C-0.357651 -4.89244 -3.30469 -1.86116 -3.30469 1.78629H8.69531C8.69531 4.68406 6.35167 7.10756 3.36914 7.10756V-4.89244ZM-3.30469 1.78629V5.71136H8.69531V1.78629H-3.30469ZM2.69531 -0.288642H2.02148V11.7114H2.69531V-0.288642ZM2.02148 -0.288642C-2.44782 -0.288642 -6 3.35219 -6 7.74756H6C6 9.8974 4.2615 11.7114 2.02148 11.7114V-0.288642ZM-6 7.74756V10.5077H6V7.74756H-6ZM-6 10.5077C-6 14.9031 -2.44782 18.5439 2.02148 18.5439V6.54394C4.2615 6.54394 6 8.35789 6 10.5077H-6ZM2.02148 18.5439H3.42363V6.54394H2.02148V18.5439ZM-1.6015 15.8224C0.243408 18.6502 3.45732 20.5701 7.14271 20.5701V8.57014C7.72077 8.57014 8.1949 8.87639 8.44876 9.26551L-1.6015 15.8224ZM7.14271 20.5701H15.8573V8.57014H7.14271V20.5701ZM15.8573 20.5701C19.5427 20.5701 22.7565 18.6502 24.6015 15.8225L14.5514 9.26538C14.8052 8.87641 15.2792 8.57014 15.8573 8.57014V20.5701ZM19.5764 18.5439H20.9785V6.54394H19.5764V18.5439ZM20.9785 18.5439C21.9212 18.5439 22.8298 18.3779 23.6707 18.0775L19.634 6.77687C20.0531 6.62715 20.5083 6.54394 20.9785 6.54394V18.5439ZM15.6523 12.4272V14.5474H27.6523V12.4272H15.6523ZM15.6523 14.5474C15.6523 12.6464 17.139 11.3303 18.8216 11.3303V23.3303C23.5732 23.3303 27.6523 19.4654 27.6523 14.5474H15.6523ZM18.8216 11.3303H16.9247V23.3303H18.8216V11.3303ZM22.6294 15.4713C21.5936 12.2928 18.6048 9.9276 15.0039 9.9276V21.9276C13.1932 21.9276 11.7256 20.7409 11.2199 19.1894L22.6294 15.4713ZM15.0039 9.9276H13.5214V21.9276H15.0039V9.9276ZM13.5214 9.9276C9.05213 9.9276 5.49995 13.5684 5.49995 17.9638H17.5C17.5 20.1136 15.7615 21.9276 13.5214 21.9276V9.9276ZM5.49995 17.9638C5.49995 22.3592 9.05213 26 13.5214 26V14C15.7615 14 17.5 15.814 17.5 17.9638H5.49995ZM13.5214 26H15.0039V14H13.5214V26ZM15.0039 26C18.4701 26 21.3695 23.8061 22.5034 20.8142L11.2823 16.5614C11.8354 15.102 13.2607 14 15.0039 14V26ZM16.8928 24.6878H18.8216V12.6878H16.8928V24.6878ZM18.8216 24.6878C24.3485 24.6878 29 20.157 29 14.5474H17C17 13.9361 17.2592 13.4725 17.5369 13.1972C17.8146 12.9221 18.2572 12.6878 18.8216 12.6878V24.6878ZM29 14.5474V7.74756H17V14.5474H29ZM29 7.74756C29 3.35219 25.4478 -0.288642 20.9785 -0.288642V11.7114C18.7385 11.7114 17 9.8974 17 7.74756H29ZM15.0039 12.6425H13.5215V24.6425H15.0039V12.6425ZM13.5215 12.6425C16.5046 12.6425 18.8477 15.0654 18.8477 17.9638H6.84766C6.84766 21.6107 9.79527 24.6425 13.5215 24.6425V12.6425ZM18.8477 17.9638C18.8477 20.8622 16.5046 23.2851 13.5215 23.2851V11.2851C9.79527 11.2851 6.84766 14.3169 6.84766 17.9638H18.8477ZM13.5215 23.2851H15.0039V11.2851H13.5215V23.2851ZM15.0039 23.2851C12.0208 23.2851 9.67773 20.8622 9.67773 17.9638H21.6777C21.6777 14.3169 18.7301 11.2851 15.0039 11.2851V23.2851ZM9.67773 17.9638C9.67773 15.0654 12.0208 12.6425 15.0039 12.6425V24.6425C18.7301 24.6425 21.6777 21.6107 21.6777 17.9638H9.67773ZM2.02148 5.18647C5.0046 5.18647 7.34766 7.60939 7.34766 10.5077H-4.65234C-4.65234 14.1546 -1.70473 17.1865 2.02148 17.1865V5.18647ZM7.34766 10.5077V7.74756H-4.65234V10.5077H7.34766ZM7.34766 7.74756C7.34766 10.6459 5.0046 13.0688 2.02148 13.0688V1.06882C-1.70473 1.06882 -4.65234 4.1007 -4.65234 7.74756H7.34766ZM2.02148 13.0688H2.69531V1.06882H2.02148V13.0688ZM-3.30469 7.06882V10.0904H8.69531V7.06882H-3.30469ZM-3.30469 10.0904C-3.30469 10.967 -3.19562 11.8239 -2.98974 12.6453L8.65017 9.72766C8.68013 9.84721 8.69531 9.96985 8.69531 10.0904H-3.30469ZM2.83021 5.18647H2.02148V17.1865H2.83021V5.18647ZM15.8573 7.21267H7.14271V19.2127H15.8573V7.21267ZM7.14271 7.21267C8.28696 7.21267 9.23561 7.86334 9.70259 8.73623L-0.878321 14.397C0.636247 17.228 3.63971 19.2127 7.14271 19.2127V7.21267ZM9.7132 8.75615C9.91375 9.13442 10.0431 9.59636 10.043 10.0924L-1.95703 10.0883C-1.95756 11.6532 -1.559 13.1132 -0.88893 14.3771L9.7132 8.75615ZM10.043 10.0904V8.77661H-1.95703V10.0904H10.043ZM10.043 8.77797C10.0431 8.31189 10.213 7.98203 10.4359 7.76028C10.6596 7.53765 11.0048 7.35747 11.5 7.35747V-4.64253C4.03335 -4.64253 -1.95533 1.27428 -1.95703 8.77525L10.043 8.77797ZM11.5 7.35747C12.3253 7.35747 12.9566 8.02714 12.957 8.77775L24.957 8.77221C24.9536 1.34209 18.8961 -4.64253 11.5 -4.64253V7.35747ZM12.957 8.77519L12.957 10.0906L24.957 10.0902L24.957 8.77477L12.957 8.77519ZM12.957 10.0904C12.957 8.53944 14.2118 7.21267 15.8573 7.21267V19.2127C20.9212 19.2127 24.957 15.0845 24.957 10.0904H12.957ZM20.9785 5.18647H20.1698V17.1865H20.9785V5.18647ZM25.9897 12.6453C26.1956 11.8239 26.3047 10.9669 26.3047 10.0904H14.3047C14.3047 9.96985 14.3199 9.84725 14.3498 9.72766L25.9897 12.6453ZM26.3047 10.0903L26.3046 7.06873L14.3046 7.06892L14.3047 10.0905L26.3047 10.0903ZM20.3046 13.0688H20.9785V1.06882H20.3046V13.0688ZM20.9785 13.0688C17.9954 13.0688 15.6523 10.6459 15.6523 7.74756H27.6523C27.6523 4.1007 24.7047 1.06882 20.9785 1.06882V13.0688ZM15.6523 7.74756V10.5077H27.6523V7.74756H15.6523ZM15.6523 10.5077C15.6523 7.60939 17.9954 5.18647 20.9785 5.18647V17.1865C24.7047 17.1865 27.6523 14.1546 27.6523 10.5077H15.6523ZM8.88721 1.55652C5.16041 1.55652 2.21338 4.58781 2.21338 8.23526H14.2134C14.2134 11.133 11.8697 13.5565 8.88721 13.5565V1.55652ZM2.21338 8.23526V8.73299H14.2134V8.23526H2.21338ZM2.21338 8.73299C2.21338 12.3804 5.16041 15.4117 8.88721 15.4117V3.41173C11.8697 3.41173 14.2134 5.83523 14.2134 8.73299H2.21338ZM8.88721 15.4117C12.614 15.4117 15.561 12.3804 15.561 8.73299H3.56104C3.56104 5.83522 5.90469 3.41173 8.88721 3.41173V15.4117ZM15.561 8.73299V8.23526H3.56104V8.73299H15.561ZM15.561 8.23526C15.561 4.58776 12.614 1.55652 8.88721 1.55652V13.5565C5.90473 13.5565 3.56104 11.133 3.56104 8.23526H15.561ZM14.1129 1.55652C10.3861 1.55652 7.43911 4.58781 7.43911 8.23526H19.4391C19.4391 11.133 17.0955 13.5565 14.1129 13.5565V1.55652ZM7.43911 8.23526V8.73299H19.4391V8.23526H7.43911ZM7.43911 8.73299C7.43911 12.3804 10.3861 15.4117 14.1129 15.4117V3.41173C17.0955 3.41173 19.4391 5.83523 19.4391 8.73299H7.43911ZM14.1129 15.4117C17.8397 15.4117 20.7868 12.3804 20.7868 8.73299H8.78677C8.78677 5.83523 11.1304 3.41173 14.1129 3.41173V15.4117ZM20.7868 8.73299V8.23526H8.78677V8.73299H20.7868ZM20.7868 8.23526C20.7868 4.5875 17.8395 1.55652 14.1129 1.55652V13.5565C11.1307 13.5565 8.78677 11.1332 8.78677 8.23526H20.7868ZM14.2627 -0.886839H8.73729V11.1132H14.2627V-0.886839ZM8.73729 -0.886839C3.53733 -0.886839 -0.609392 3.35272 -0.609392 8.4842H11.3906C11.3906 9.89804 10.2466 11.1132 8.73729 11.1132V-0.886839ZM-0.609392 8.4842C-0.609392 13.6155 3.53718 17.8552 8.73729 17.8552V5.85524C10.2466 5.85524 11.3906 7.07043 11.3906 8.4842H-0.609392ZM8.73729 17.8552H14.2627V5.85524H8.73729V17.8552ZM14.2627 17.8552C19.4626 17.8552 23.6094 13.6157 23.6094 8.4842H11.6094C11.6094 7.07036 12.7534 5.85524 14.2627 5.85524V17.8552ZM23.6094 8.4842C23.6094 3.35272 19.4626 -0.886839 14.2627 -0.886839V11.1132C12.7534 11.1132 11.6094 9.89804 11.6094 8.4842H23.6094ZM14.2627 4.49773H8.73729V16.4977H14.2627V4.49773ZM8.73729 4.49773C10.9896 4.49773 12.7383 6.32178 12.7383 8.48416H0.738265C0.738265 12.8672 4.28047 16.4977 8.73729 16.4977V4.49773ZM12.7383 8.48416C12.7383 10.6464 10.9897 12.4706 8.73729 12.4706V0.470581C4.28025 0.470581 0.738265 4.10137 0.738265 8.48416H12.7383ZM8.73729 12.4706H14.2627V0.470581H8.73729V12.4706ZM14.2627 12.4706C12.0104 12.4706 10.2617 10.6465 10.2617 8.48416H22.2617C22.2617 4.10115 18.7195 0.470581 14.2627 0.470581V12.4706ZM10.2617 8.48416C10.2617 6.32178 12.0104 4.49773 14.2627 4.49773V16.4977C18.7195 16.4977 22.2617 12.8672 22.2617 8.48416H10.2617Z" fill="white" mask="url(#path-1-inside-1_6088_59595)"/>
</svg>
