<svg width="20" height="20" viewBox="0 0 20 20" fill="none" xmlns="http://www.w3.org/2000/svg">
<path d="M17.9999 17.9999L19.5539 10.7524C19.7673 9.89847 19.2217 9.20007 18.3421 9.20007H17.2C15.8437 7.38135 14.1983 6.19815 12.4633 5.62C12.9165 5.06776 13.1999 4.37056 13.1999 3.60016C13.1999 1.83304 11.7671 0.400238 9.99999 0.400238C8.23287 0.400238 6.80007 1.83304 6.80007 3.60016C6.80007 4.37056 7.08375 5.06776 7.53663 5.62C5.80167 6.19815 4.15599 7.38087 2.79999 9.20007H1.65831C0.778229 9.20007 0.23295 9.89847 0.44607 10.7524L2.00007 17.9999H0.399989V19.5997H19.5997V17.9999H17.9999ZM9.99999 2.00008C10.8837 2.00008 11.6001 2.71648 11.6001 3.60016C11.6001 4.48384 10.8837 5.20024 9.99999 5.20024C9.11631 5.20024 8.39991 4.48384 8.39991 3.60016C8.39991 2.71648 9.11631 2.00008 9.99999 2.00008ZM9.99999 6.80007C11.8485 6.80007 13.6235 7.64967 15.1 9.20007H4.89975C6.37695 7.65015 8.15079 6.80007 9.99999 6.80007ZM16.3633 17.9999H3.63639L2.09271 10.7999H17.9085L16.3633 17.9999Z" fill="#A5A8AE"/>
</svg>
