<svg width="20" height="16" viewBox="0 0 20 16" fill="none" xmlns="http://www.w3.org/2000/svg">
<path d="M12.2902 10.19L9.00019 13.48L7.71019 12.19C7.61722 12.0963 7.50662 12.0219 7.38476 11.9711C7.2629 11.9204 7.1322 11.8942 7.00019 11.8942C6.86817 11.8942 6.73747 11.9204 6.61561 11.9711C6.49375 12.0219 6.38315 12.0963 6.29019 12.19C6.10393 12.3774 5.99939 12.6308 5.99939 12.895C5.99939 13.1592 6.10393 13.4127 6.29019 13.6L8.29019 15.6C8.38315 15.6937 8.49375 15.7681 8.61561 15.8189C8.73747 15.8697 8.86817 15.8958 9.00019 15.8958C9.1322 15.8958 9.2629 15.8697 9.38476 15.8189C9.50662 15.7681 9.61722 15.6937 9.71019 15.6L13.7102 11.6C13.8964 11.4127 14.001 11.1592 14.001 10.895C14.001 10.6308 13.8964 10.3774 13.7102 10.19C13.6172 10.0963 13.5066 10.0219 13.3848 9.97113C13.2629 9.92036 13.1322 9.89422 13.0002 9.89422C12.8682 9.89422 12.7375 9.92036 12.6156 9.97113C12.4937 10.0219 12.3831 10.0963 12.2902 10.19ZM16.4202 4.32002C15.8085 2.91583 14.7531 1.75102 13.4159 1.00418C12.0787 0.257335 10.5334 -0.0303103 9.01707 0.185343C7.50069 0.400996 6.09689 1.10804 5.0209 2.19808C3.94492 3.28811 3.25615 4.70097 3.06019 6.22002C2.22618 6.42695 1.48098 6.89695 0.934925 7.56044C0.388872 8.22392 0.0709966 9.04562 0.0283652 9.90386C-0.0142662 10.7621 0.220613 11.6112 0.698226 12.3256C1.17584 13.0399 1.87079 13.5815 2.68019 13.87C2.80792 13.937 2.94864 13.9756 3.09269 13.9832C3.23675 13.9907 3.38072 13.967 3.51474 13.9136C3.64876 13.8602 3.76964 13.7785 3.86911 13.674C3.96857 13.5696 4.04425 13.4448 4.09096 13.3083C4.13767 13.1719 4.1543 13.0269 4.13971 12.8834C4.12512 12.7399 4.07965 12.6012 4.00643 12.4769C3.93321 12.3526 3.83397 12.2457 3.71552 12.1634C3.59706 12.081 3.4622 12.0253 3.32019 12C2.93042 11.8591 2.59405 11.6006 2.35758 11.2603C2.12111 10.9199 1.99622 10.5145 2.00019 10.1C2.00019 9.56959 2.2109 9.06088 2.58597 8.6858C2.96105 8.31073 3.46975 8.10002 4.00019 8.10002C4.2654 8.10002 4.51976 7.99466 4.70729 7.80713C4.89483 7.61959 5.00019 7.36524 5.00019 7.10002C5.00508 5.91815 5.42848 4.77622 6.19526 3.87683C6.96204 2.97745 8.02262 2.37876 9.18884 2.18699C10.3551 1.99521 11.5515 2.22276 12.5659 2.82924C13.5803 3.43573 14.3471 4.38195 14.7302 5.50002C14.7888 5.67 14.8923 5.82101 15.0295 5.93716C15.1668 6.05331 15.3328 6.1303 15.5102 6.16002C16.1763 6.28589 16.7801 6.63362 17.2232 7.14655C17.6664 7.65948 17.9228 8.30738 17.9506 8.98466C17.9784 9.66194 17.7761 10.3287 17.3765 10.8763C16.9769 11.4238 16.4037 11.8199 15.7502 12C15.485 12.0332 15.2438 12.1703 15.0797 12.3813C14.9156 12.5923 14.842 12.8598 14.8752 13.125C14.9083 13.3902 15.0455 13.6314 15.2565 13.7955C15.4674 13.9596 15.735 14.0332 16.0002 14H16.2502C17.3026 13.7219 18.2355 13.108 18.9072 12.2515C19.5789 11.395 19.9528 10.3426 19.972 9.25429C19.9913 8.16595 19.6548 7.10106 19.0138 6.22134C18.3727 5.34162 17.4621 4.69512 16.4202 4.38002V4.32002Z" fill="#685BE7"/>
</svg>
