<svg width="331" height="62" viewBox="0 0 331 62" fill="none" xmlns="http://www.w3.org/2000/svg">
<path d="M324.47 61.5303C324.763 61.8232 325.237 61.8232 325.53 61.5303L330.303 56.7574C330.596 56.4645 330.596 55.9896 330.303 55.6967C330.01 55.4038 329.536 55.4038 329.243 55.6967L325 59.9393L320.757 55.6967C320.464 55.4038 319.99 55.4038 319.697 55.6967C319.404 55.9896 319.404 56.4645 319.697 56.7574L324.47 61.5303ZM295.5 1.75H309V0.25H295.5V1.75ZM309 1.75C317.386 1.75 324.25 8.61421 324.25 17H325.75C325.75 7.78579 318.214 0.25 309 0.25V1.75ZM324.25 17V61H325.75V17H324.25Z" fill="#685BE7"/>
<path d="M295.5 1H0" stroke="#685BE7" stroke-width="1.5" stroke-dasharray="4 4"/>
</svg>
