<svg width="197" height="91" viewBox="0 0 197 91" fill="none" xmlns="http://www.w3.org/2000/svg">
<path d="M5.46967 90.5303C5.76256 90.8232 6.23744 90.8232 6.53033 90.5303L11.3033 85.7574C11.5962 85.4645 11.5962 84.9896 11.3033 84.6967C11.0104 84.4038 10.5355 84.4038 10.2426 84.6967L6 88.9393L1.75736 84.6967C1.46447 84.4038 0.989593 84.4038 0.696699 84.6967C0.403806 84.9896 0.403806 85.4645 0.696699 85.7574L5.46967 90.5303ZM6.75 90V54.1H5.25V90H6.75ZM6.75 54.1C6.75 45.7142 13.6142 38.85 22 38.85V37.35C12.7858 37.35 5.25 44.8858 5.25 54.1H6.75ZM22 38.85H26.5V37.35H22V38.85Z" fill="#685BE7"/>
<path d="M196 0V22.1C196 30.9 188.8 38.1 180 38.1H26.5" stroke="#685BE7" stroke-width="1.5" stroke-dasharray="4 4"/>
</svg>
